<svg id="_·_ÀÌ_î_1" data-name="·¹ÀÌ¾î_1" xmlns="http://www.w3.org/2000/svg" viewBox="0 0 312.9 375.01"><defs><style>.cls-1{fill:#01a0dc;}</style></defs><title>blue_bottle_logo-text</title><path class="cls-1" d="M195.06,88.7c0,6.78-.13,13.56.05,20.34.13,4.8,1.5,9.26,5.39,12.51a18.92,18.92,0,0,0,8.53,3.78c9.34,1.91,16,7.49,20.83,15.42,3.58,5.88,5.92,12.3,8,18.84a95.71,95.71,0,0,1,3,14.83,49.12,49.12,0,0,1,.31,6.65c.1,4.74.31,9.49.52,14.22.29,6.65-.06,13.3.34,19.92a82.82,82.82,0,0,1,.19,10.79c-.41,6.07,0,12.15-.32,18.2-.26,5-.28,9.92-.69,14.85-.5,5.92-1,11.84-1.58,17.75-.51,5.06-1.52,10.05-1.9,15.13a51.09,51.09,0,0,1-4,16.09,12.38,12.38,0,0,1-6.06,6.25,51.24,51.24,0,0,1-13.77,5.29,32.1,32.1,0,0,1-14,.17,6.24,6.24,0,0,0-1.37,0c-5.61,0-11.21.09-16.82.29a90,90,0,0,1-20.08-1.94c-2-.38-4.07-.84-6.12-1.17-3.51-.57-5.86-2.82-6.63-6.95-1.62-8.6-3.56-17.14-5.08-25.75-1.15-6.48-2.31-12.95-3.24-19.47-.82-5.69-1.66-11.37-2.37-17.07-.66-5.27-1.3-10.54-1.74-15.84-.35-4.29-.77-8.58-1-12.88s-.42-8.64-.69-13c-.6-9.57-.31-19.14-.2-28.71a145.4,145.4,0,0,1,1.23-15.41c.49-4.08.86-8.16,2.14-12.1a18.36,18.36,0,0,1,9.24-10.68c4-2.16,8.44-3.4,12.45-5.54,5.6-3,10.51-6.78,13.28-12.74a37.36,37.36,0,0,0,3-12.38c.55-5.83.1-11.67.33-17.51.05-1.39-.36-2.69-.41-4.06-.16-5.22.64-10.41.35-15.61-.06-1.11.66-1.25,1.29-1.38,3.62-.76,7.26-1.45,10.9-2.15a50.1,50.1,0,0,0,5.61-1.1c1.41-.44,1.2.28,1.2,1.09Q195.06,78.19,195.06,88.7Z" transform="translate(-35.25 -49.54)"/><path class="cls-1" d="M187.18,64.93a12.33,12.33,0,0,0-1.72,0,2.06,2.06,0,0,1-2.6-1.57c-.58-1.56-2.32-1-3.54-1.17-2.11-.38-4.28-.4-6.38-.79-3.31-.61-4.53-2-4.73-5.53-.08-1.56-.38-3.19.43-4.71,1-1.78,1.91-2.07,3.66-1.08a3.9,3.9,0,0,1,1.6,1.51,11,11,0,0,0,5.79,5c1.94.84,4.09.66,6.11,1.14,2.34.55,4.73.29,7.1.6a29.9,29.9,0,0,0,6.46-.3c.82-.08,1.69-.73,2.28.28a3.09,3.09,0,0,1,0,3.07,3.81,3.81,0,0,1-2.7,2.23A62.8,62.8,0,0,1,187.18,64.93Z" transform="translate(-35.25 -49.54)"/><path d="M55.66,368.17a7.65,7.65,0,0,1,4.09,6.8c0,4.43-2.76,9.9-11.89,9.9H35.25V351.56H47.86c9.13,0,11.89,5.52,11.89,9.95A8,8,0,0,1,55.66,368.17Zm-2.76-6.66c0-.91-.57-3.81-4.57-3.81H41.91v7.71h6.57C52.33,365.31,52.9,362.6,52.9,361.51Zm0,13.46c0-1.23-.57-3.47-4.42-3.57H41.91v7.28h6.42C52.33,378.68,52.9,375.88,52.9,375Z" transform="translate(-35.25 -49.54)"/><path d="M74.12,378.68H86.59v6.19H67.37V351.56h6.75Z" transform="translate(-35.25 -49.54)"/><path d="M111.48,371.93V351.56h6.8v20.37c0,5.61-3.43,13.27-13.23,13.27s-13.22-7.66-13.22-13.27V351.56h6.75v20.37c0,1.95,1.34,7.13,6.47,7.13S111.48,373.88,111.48,371.93Z" transform="translate(-35.25 -49.54)"/><path d="M134,371.55v7.13H150v6.19H127.32V351.56H150v6.19H134v7.61H146.5v6.19Z" transform="translate(-35.25 -49.54)"/><path d="M192.27,368.17a7.65,7.65,0,0,1,4.09,6.8c0,4.43-2.76,9.9-11.89,9.9H171.86V351.56h12.61c9.13,0,11.89,5.52,11.89,9.95A8,8,0,0,1,192.27,368.17Zm-2.76-6.66c0-.91-.57-3.81-4.57-3.81h-6.42v7.71h6.57C188.94,365.31,189.51,362.6,189.51,361.51Zm0,13.46c0-1.23-.57-3.47-4.42-3.57h-6.57v7.28h6.42C188.94,378.68,189.51,375.88,189.51,375Z" transform="translate(-35.25 -49.54)"/><path d="M235.09,368.17c0,7.14-3.85,17.22-16.46,17.22s-16.55-10.08-16.55-17.22c0-6.95,3.85-17.18,16.55-17.18S235.09,361.22,235.09,368.17Zm-6.85,0c0-2.71-1.23-10.9-9.61-10.9s-9.7,8.19-9.7,10.9,1.19,11,9.7,11S228.24,370.88,228.24,368.17Z" transform="translate(-35.25 -49.54)"/><path d="M246.71,357.75h-9v-6.19H262.6v6.19h-9.09v27.12h-6.8Z" transform="translate(-35.25 -49.54)"/><path d="M275.88,357.75h-9v-6.19h24.89v6.19h-9.09v27.12h-6.8Z" transform="translate(-35.25 -49.54)"/><path d="M305.43,378.68h12.46v6.19H298.67V351.56h6.76Z" transform="translate(-35.25 -49.54)"/><path d="M332.22,371.55v7.13h15.93v6.19H325.51V351.56h22.64v6.19H332.22v7.61h12.46v6.19Z" transform="translate(-35.25 -49.54)"/><path d="M147.55,407.46a8.57,8.57,0,0,0-6.07-2.75c-6.66,0-7.64,6.35-7.64,8.47s1,8.43,7.64,8.43a9.71,9.71,0,0,0,6.26-2.65l1.87,2.37a10.85,10.85,0,0,1-8.13,3.22c-8.43,0-10.93-6.63-10.93-11.37s2.5-11.35,10.93-11.35a10.2,10.2,0,0,1,8.19,3.57Z" transform="translate(-35.25 -49.54)"/><path d="M175,413.18c0,4.74-2.5,11.37-10.93,11.37s-10.94-6.63-10.94-11.37,2.5-11.35,10.94-11.35S175,408.56,175,413.18Zm-3.32,0c0-2.12-.95-8.47-7.61-8.47s-7.65,6.35-7.65,8.47,1,8.5,7.65,8.5S171.69,415.29,171.69,413.18Z" transform="translate(-35.25 -49.54)"/><path d="M183.29,414.79v9.48h-3.22V402.15H194.6V405H183.29v6.95h8.85v2.85Z" transform="translate(-35.25 -49.54)"/><path d="M202.88,414.79v9.48h-3.22V402.15h14.53V405H202.88v6.95h8.85v2.85Z" transform="translate(-35.25 -49.54)"/><path d="M222.47,414.79v6.63h11.31v2.85H219.25V402.15h14.53V405H222.47v6.95h8.85v2.85Z" transform="translate(-35.25 -49.54)"/><path d="M242.06,414.79v6.63h11.32v2.85H238.84V402.15h14.54V405H242.06v6.95h8.85v2.85Z" transform="translate(-35.25 -49.54)"/></svg>