<svg id="_·_ÀÌ_î_1" data-name="·¹ÀÌ¾î_1" xmlns="http://www.w3.org/2000/svg" viewBox="0 0 78.95 197.98"><defs><style>.cls-1{fill:#01a0dc;}</style></defs><title>blue_bottle_logo</title><path class="cls-1" d="M146.66,71.37c0,4.95-.1,9.91,0,14.86.1,3.51,1.1,6.76,3.94,9.14a13.71,13.71,0,0,0,6.24,2.76c6.83,1.4,11.69,5.48,15.22,11.28A62.62,62.62,0,0,1,178,123.17,69.61,69.61,0,0,1,180.13,134a35.87,35.87,0,0,1,.23,4.86c.07,3.47.23,6.94.38,10.4.21,4.86-.05,9.72.25,14.56a61,61,0,0,1,.14,7.88c-.3,4.44,0,8.88-.24,13.3-.19,3.62-.2,7.25-.51,10.85-.36,4.33-.72,8.66-1.15,13-.37,3.7-1.1,7.34-1.38,11.06a37.6,37.6,0,0,1-2.95,11.75,9,9,0,0,1-4.43,4.57,37.36,37.36,0,0,1-10.07,3.87,23.34,23.34,0,0,1-10.22.12,4.85,4.85,0,0,0-1,0c-4.1,0-8.19.06-12.29.21A66,66,0,0,1,122.2,239c-1.48-.29-3-.62-4.47-.86-2.57-.41-4.28-2.06-4.85-5.08-1.18-6.28-2.6-12.52-3.71-18.82-.84-4.73-1.68-9.47-2.37-14.23-.59-4.16-1.21-8.31-1.73-12.47-.48-3.86-.95-7.71-1.27-11.58-.25-3.14-.56-6.27-.77-9.42s-.3-6.31-.5-9.47c-.44-7-.23-14-.14-21a104.12,104.12,0,0,1,.89-11.26,45.73,45.73,0,0,1,1.57-8.85,13.38,13.38,0,0,1,6.75-7.8c2.93-1.58,6.17-2.49,9.1-4,4.09-2.19,7.68-5,9.7-9.31a27.33,27.33,0,0,0,2.18-9c.41-4.26.08-8.53.24-12.79,0-1-.26-2-.29-3-.12-3.81.46-7.6.25-11.4-.05-.82.48-.92.94-1,2.65-.56,5.31-1.06,8-1.57a35,35,0,0,0,4.1-.81c1-.32.87.21.87.8Z" transform="translate(-102.26 -42.74)"/><path class="cls-1" d="M140.9,54a8.82,8.82,0,0,0-1.26,0,1.5,1.5,0,0,1-1.9-1.14c-.42-1.14-1.69-.69-2.59-.86-1.54-.27-3.12-.29-4.66-.57-2.42-.45-3.31-1.49-3.45-4a6.06,6.06,0,0,1,.31-3.44c.7-1.3,1.39-1.51,2.67-.79a2.9,2.9,0,0,1,1.17,1.1,8,8,0,0,0,4.24,3.62c1.41.62,3,.49,4.46.84a50,50,0,0,0,5.19.43,22.06,22.06,0,0,0,4.72-.21c.6-.06,1.24-.54,1.67.2a2.26,2.26,0,0,1,0,2.25,2.82,2.82,0,0,1-2,1.62A46.08,46.08,0,0,1,140.9,54Z" transform="translate(-102.26 -42.74)"/></svg>